ffmpeg started on 2026-01-18 at 21:30:42
Report written to "D:\Convert\FFMetrics\reports\psnr_report-6.txt"
Log level: 32
Command line:
ffmpeg -hide_banner -nostdin -r 24000/1001 -i "D:\\Convert\\files\\Nanatsu_no_Maken_ga_Shihai_suru_[02]_[AniLibria_TV]_[WEBRip_1080p_HEVC].mkv" -r 24000/1001 -i "D:\\Convert\\files\\Nanatsu_no_Maken_ga_Shihai_suru_[02]_[AniLibria_TV]_[WEBRip_1080p].mkv" -lavfi "[0:v]settb=AVTB,setpts=PTS-STARTPTS,format=pix_fmts=yuv420p10le,fps=24000/1001,scale=1920:1080:flags=lanczos:param0=3:out_range=limited:out_color_matrix=bt709:out_chroma_loc=left,setsar=1/1,setdar=(1920/1080)*(1/1),colorspace=format=yuv420p10:range=tv:primaries=bt709:trc=bt709:space=bt709:fast=0[main];[1:v]settb=AVTB,setpts=PTS-STARTPTS,format=pix_fmts=yuv420p,fps=24000/1001,scale=1920:1080:flags=lanczos:param0=3:out_range=limited:out_color_matrix=bt709:out_chroma_loc=left,setsar=1.000,setdar=1.778,colorspace=format=yuv420p:range=tv:primaries=bt709:trc=bt709:space=bt709:fast=0[ref];[main][ref]psnr=eof_action=endall:stats_file='D\\:/Convert/FFMetrics/logs/psnr_logfile-6.txt'" -f null -
Input #0, matroska,webm, from 'D:\Convert\files\Nanatsu_no_Maken_ga_Shihai_suru_[02]_[AniLibria_TV]_[WEBRip_1080p_HEVC].mkv':
  Metadata:
    encoder         : libebml v1.4.4 + libmatroska v1.7.1
    creation_time   : 2023-07-16T11:03:35.000000Z
  Duration: 00:23:40.12, start: 0.000000, bitrate: 1184 kb/s
  Stream #0:0: Video: hevc (Main 10), yuv420p10le(tv, bt709), 1920x1080 [SAR 1:1 DAR 16:9], 23.98 fps, 23.98 tbr, 1k tbn (default)
      Metadata:
        title           : Original [The Foxon]
        BPS             : 820862
        DURATION        : 00:23:40.043708333
        NUMBER_OF_FRAMES: 34047
        NUMBER_OF_BYTES : 145707535
        _STATISTICS_WRITING_APP: mkvpropedit v94.0 ('Initiate') 64-bit
        _STATISTICS_WRITING_DATE_UTC: 2026-01-18 18:30:23
        _STATISTICS_TAGS: BPS DURATION NUMBER_OF_FRAMES NUMBER_OF_BYTES
  Stream #0:1(rus): Audio: aac (LC), 48000 Hz, stereo, fltp (default)
      Metadata:
        title           : AniLibria.TV
        BPS             : 191999
        DURATION        : 00:23:40.116999999
        NUMBER_OF_FRAMES: 66568
        NUMBER_OF_BYTES : 34082731
        _STATISTICS_WRITING_APP: mkvpropedit v94.0 ('Initiate') 64-bit
        _STATISTICS_WRITING_DATE_UTC: 2026-01-18 18:30:23
        _STATISTICS_TAGS: BPS DURATION NUMBER_OF_FRAMES NUMBER_OF_BYTES
  Stream #0:2(jpn): Audio: aac (LC), 44100 Hz, stereo, fltp
      Metadata:
        title           : Original
        BPS             : 128000
        DURATION        : 00:23:40.108439908
        NUMBER_OF_FRAMES: 61159
        NUMBER_OF_BYTES : 22721748
        _STATISTICS_WRITING_APP: mkvpropedit v94.0 ('Initiate') 64-bit
        _STATISTICS_WRITING_DATE_UTC: 2026-01-18 18:30:23
        _STATISTICS_TAGS: BPS DURATION NUMBER_OF_FRAMES NUMBER_OF_BYTES
  Stream #0:3(rus): Subtitle: ass (ssa) (default)
      Metadata:
        title           : Надписи
        BPS             : 340
        DURATION        : 00:22:14.570000000
        NUMBER_OF_FRAMES: 381
        NUMBER_OF_BYTES : 56799
        _STATISTICS_WRITING_APP: mkvpropedit v94.0 ('Initiate') 64-bit
        _STATISTICS_WRITING_DATE_UTC: 2026-01-18 18:30:23
        _STATISTICS_TAGS: BPS DURATION NUMBER_OF_FRAMES NUMBER_OF_BYTES
  Stream #0:4(rus): Subtitle: ass (ssa)
      Metadata:
        title           : Субтитры
        BPS             : 489
        DURATION        : 00:23:37.340000000
        NUMBER_OF_FRAMES: 749
        NUMBER_OF_BYTES : 86800
        _STATISTICS_WRITING_APP: mkvpropedit v94.0 ('Initiate') 64-bit
        _STATISTICS_WRITING_DATE_UTC: 2026-01-18 18:30:23
        _STATISTICS_TAGS: BPS DURATION NUMBER_OF_FRAMES NUMBER_OF_BYTES
  Stream #0:5: Attachment: ttf
      Metadata:
        filename        : AGPMOD.TTF
        mimetype        : application/x-truetype-font
  Stream #0:6: Attachment: ttf
      Metadata:
        filename        : DFPSNGyosho-W5-CP-Spec.ttf
        mimetype        : application/x-truetype-font
  Stream #0:7: Attachment: ttf
      Metadata:
        filename        : Modernist One.ttf
        mimetype        : application/x-truetype-font
  Stream #0:8: Attachment: ttf
      Metadata:
        filename        : 1125177.TTF
        mimetype        : application/x-truetype-font
  Stream #0:9: Attachment: ttf
      Metadata:
        filename        : Roboto-Medium.ttf
        mimetype        : application/x-truetype-font
  Stream #0:10: Attachment: ttf
      Metadata:
        filename        : Roboto-MediumItalic.ttf
        mimetype        : application/x-truetype-font
  Stream #0:11: Attachment: ttf
      Metadata:
        filename        : arial.ttf
        mimetype        : application/x-truetype-font
  Stream #0:12: Attachment: ttf
      Metadata:
        filename        : arialbd.ttf
        mimetype        : application/x-truetype-font
  Stream #0:13: Attachment: ttf
      Metadata:
        filename        : comic.ttf
        mimetype        : application/x-truetype-font
  Stream #0:14: Attachment: ttf
      Metadata:
        filename        : comicbd.ttf
        mimetype        : application/x-truetype-font
  Stream #0:15: Attachment: ttf
      Metadata:
        filename        : times.ttf
        mimetype        : application/x-truetype-font
  Stream #0:16: Attachment: ttf
      Metadata:
        filename        : timesbd.ttf
        mimetype        : application/x-truetype-font
  Stream #0:17: Attachment: ttf
      Metadata:
        filename        : trebuc.ttf
        mimetype        : application/x-truetype-font
  Stream #0:18: Attachment: ttf
      Metadata:
        filename        : trebucbd.ttf
        mimetype        : application/x-truetype-font
  Stream #0:19: Attachment: ttf
      Metadata:
        filename        : verdana.ttf
        mimetype        : application/x-truetype-font
  Stream #0:20: Attachment: ttf
      Metadata:
        filename        : verdanab.ttf
        mimetype        : application/x-truetype-font
  Stream #0:21: Attachment: ttf
      Metadata:
        filename        : CONSOLA.TTF
        mimetype        : application/x-truetype-font
  Stream #0:22: Attachment: ttf
      Metadata:
        filename        : CONSOLAB.TTF
        mimetype        : application/x-truetype-font
Input #1, matroska,webm, from 'D:\Convert\files\Nanatsu_no_Maken_ga_Shihai_suru_[02]_[AniLibria_TV]_[WEBRip_1080p].mkv':
  Metadata:
    encoder         : libebml v1.4.4 + libmatroska v1.7.1
    creation_time   : 2023-07-15T11:47:58.000000Z
  Duration: 00:23:40.12, start: 0.000000, bitrate: 8335 kb/s
  Stream #1:0: Video: h264 (High), yuv420p(tv, bt709, progressive), 1920x1080 [SAR 1:1 DAR 16:9], 23.98 fps, 23.98 tbr, 1k tbn (default)
      Metadata:
        title           : Original
        BPS             : 7971709
        DURATION        : 00:23:40.045000000
        NUMBER_OF_FRAMES: 34047
        NUMBER_OF_BYTES : 1415023222
        _STATISTICS_WRITING_APP: mkvmerge v77.0 ('Elemental') 64-bit
        _STATISTICS_WRITING_DATE_UTC: 2023-07-15 11:47:58
        _STATISTICS_TAGS: BPS DURATION NUMBER_OF_FRAMES NUMBER_OF_BYTES
  Stream #1:1(rus): Audio: aac (LC), 48000 Hz, stereo, fltp (default)
      Metadata:
        title           : AniLibria.TV
        BPS             : 191999
        DURATION        : 00:23:40.117000000
        NUMBER_OF_FRAMES: 66568
        NUMBER_OF_BYTES : 34082731
        _STATISTICS_WRITING_APP: mkvmerge v77.0 ('Elemental') 64-bit
        _STATISTICS_WRITING_DATE_UTC: 2023-07-15 11:47:58
        _STATISTICS_TAGS: BPS DURATION NUMBER_OF_FRAMES NUMBER_OF_BYTES
  Stream #1:2(jpn): Audio: aac (LC), 44100 Hz, stereo, fltp
      Metadata:
        title           : Original
        BPS             : 128000
        DURATION        : 00:23:40.109000000
        NUMBER_OF_FRAMES: 61159
        NUMBER_OF_BYTES : 22721748
        _STATISTICS_WRITING_APP: mkvmerge v77.0 ('Elemental') 64-bit
        _STATISTICS_WRITING_DATE_UTC: 2023-07-15 11:47:58
        _STATISTICS_TAGS: BPS DURATION NUMBER_OF_FRAMES NUMBER_OF_BYTES
  Stream #1:3(rus): Subtitle: ass (ssa) (default)
      Metadata:
        title           : Надписи
        BPS             : 340
        DURATION        : 00:22:14.570000000
        NUMBER_OF_FRAMES: 381
        NUMBER_OF_BYTES : 56799
        _STATISTICS_WRITING_APP: mkvmerge v77.0 ('Elemental') 64-bit
        _STATISTICS_WRITING_DATE_UTC: 2023-07-15 11:47:58
        _STATISTICS_TAGS: BPS DURATION NUMBER_OF_FRAMES NUMBER_OF_BYTES
  Stream #1:4(rus): Subtitle: ass (ssa)
      Metadata:
        title           : Субтитры
        BPS             : 489
        DURATION        : 00:23:37.340000000
        NUMBER_OF_FRAMES: 749
        NUMBER_OF_BYTES : 86800
        _STATISTICS_WRITING_APP: mkvmerge v77.0 ('Elemental') 64-bit
        _STATISTICS_WRITING_DATE_UTC: 2023-07-15 11:47:58
        _STATISTICS_TAGS: BPS DURATION NUMBER_OF_FRAMES NUMBER_OF_BYTES
  Stream #1:5: Attachment: ttf
      Metadata:
        filename        : AGPMOD.TTF
        mimetype        : application/x-truetype-font
  Stream #1:6: Attachment: ttf
      Metadata:
        filename        : DFPSNGyosho-W5-CP-Spec.ttf
        mimetype        : application/x-truetype-font
  Stream #1:7: Attachment: ttf
      Metadata:
        filename        : Modernist One.ttf
        mimetype        : application/x-truetype-font
  Stream #1:8: Attachment: ttf
      Metadata:
        filename        : 1125177.TTF
        mimetype        : application/x-truetype-font
  Stream #1:9: Attachment: ttf
      Metadata:
        filename        : Roboto-Medium.ttf
        mimetype        : application/x-truetype-font
  Stream #1:10: Attachment: ttf
      Metadata:
        filename        : Roboto-MediumItalic.ttf
        mimetype        : application/x-truetype-font
  Stream #1:11: Attachment: ttf
      Metadata:
        filename        : arial.ttf
        mimetype        : application/x-truetype-font
  Stream #1:12: Attachment: ttf
      Metadata:
        filename        : arialbd.ttf
        mimetype        : application/x-truetype-font
  Stream #1:13: Attachment: ttf
      Metadata:
        filename        : comic.ttf
        mimetype        : application/x-truetype-font
  Stream #1:14: Attachment: ttf
      Metadata:
        filename        : comicbd.ttf
        mimetype        : application/x-truetype-font
  Stream #1:15: Attachment: ttf
      Metadata:
        filename        : times.ttf
        mimetype        : application/x-truetype-font
  Stream #1:16: Attachment: ttf
      Metadata:
        filename        : timesbd.ttf
        mimetype        : application/x-truetype-font
  Stream #1:17: Attachment: ttf
      Metadata:
        filename        : trebuc.ttf
        mimetype        : application/x-truetype-font
  Stream #1:18: Attachment: ttf
      Metadata:
        filename        : trebucbd.ttf
        mimetype        : application/x-truetype-font
  Stream #1:19: Attachment: ttf
      Metadata:
        filename        : verdana.ttf
        mimetype        : application/x-truetype-font
  Stream #1:20: Attachment: ttf
      Metadata:
        filename        : verdanab.ttf
        mimetype        : application/x-truetype-font
  Stream #1:21: Attachment: ttf
      Metadata:
        filename        : CONSOLA.TTF
        mimetype        : application/x-truetype-font
  Stream #1:22: Attachment: ttf
      Metadata:
        filename        : CONSOLAB.TTF
        mimetype        : application/x-truetype-font
Stream mapping:
  Stream #0:0 (hevc) -> settb:default
  Stream #1:0 (h264) -> settb:default
  psnr:default -> Stream #0:0 (wrapped_avframe)
  Stream #0:1 -> #0:1 (aac (native) -> pcm_s16le (native))
Output #0, null, to 'pipe:':
  Metadata:
    encoder         : Lavf61.7.100
  Stream #0:0: Video: wrapped_avframe, yuv420p10le(tv, bt709, progressive), 1920x1080 [SAR 1:1 DAR 16:9], q=2-31, 200 kb/s, 23.98 fps, 23.98 tbn
      Metadata:
        encoder         : Lavc61.19.100 wrapped_avframe
  Stream #0:1(rus): Audio: pcm_s16le, 48000 Hz, stereo, s16, 1536 kb/s (default)
      Metadata:
        title           : AniLibria.TV
        BPS             : 191999
        DURATION        : 00:23:40.116999999
        NUMBER_OF_FRAMES: 66568
        NUMBER_OF_BYTES : 34082731
        _STATISTICS_WRITING_APP: mkvpropedit v94.0 ('Initiate') 64-bit
        _STATISTICS_WRITING_DATE_UTC: 2026-01-18 18:30:23
        _STATISTICS_TAGS: BPS DURATION NUMBER_OF_FRAMES NUMBER_OF_BYTES
        encoder         : Lavc61.19.100 pcm_s16le
frame=  150 fps=0.0 q=-0.0 size=N/A time=00:00:06.25 bitrate=N/A speed=11.9x    frame=  356 fps=343 q=-0.0 size=N/A time=00:00:14.84 bitrate=N/A speed=14.3x    frame=  558 fps=360 q=-0.0 size=N/A time=00:00:23.27 bitrate=N/A speed=  15x    frame=  758 fps=367 q=-0.0 size=N/A time=00:00:31.61 bitrate=N/A speed=15.3x    frame=  975 fps=376 q=-0.0 size=N/A time=00:00:40.66 bitrate=N/A speed=15.7x    frame= 1179 fps=378 q=-0.0 size=N/A time=00:00:49.17 bitrate=N/A speed=15.8x    frame= 1373 fps=378 q=-0.0 size=N/A time=00:00:57.26 bitrate=N/A speed=15.8x    frame= 1572 fps=379 q=-0.0 size=N/A time=00:01:05.56 bitrate=N/A speed=15.8x    frame= 1775 fps=381 q=-0.0 size=N/A time=00:01:14.03 bitrate=N/A speed=15.9x    frame= 1974 fps=381 q=-0.0 size=N/A time=00:01:22.33 bitrate=N/A speed=15.9x    frame= 2178 fps=382 q=-0.0 size=N/A time=00:01:30.84 bitrate=N/A speed=15.9x    frame= 2357 fps=380 q=-0.0 size=N/A time=00:01:38.30 bitrate=N/A speed=15.8x    frame= 2536 fps=378 q=-0.0 size=N/A time=00:01:45.77 bitrate=N/A speed=15.7x    frame= 2725 fps=376 q=-0.0 size=N/A time=00:01:53.65 bitrate=N/A speed=15.7x    frame= 2898 fps=374 q=-0.0 size=N/A time=00:02:00.87 bitrate=N/A speed=15.6x    frame= 3082 fps=373 q=-0.0 size=N/A time=00:02:08.54 bitrate=N/A speed=15.5x    frame= 3250 fps=370 q=-0.0 size=N/A time=00:02:15.55 bitrate=N/A speed=15.4x    frame= 3440 fps=370 q=-0.0 size=N/A time=00:02:23.47 bitrate=N/A speed=15.4x    frame= 3618 fps=368 q=-0.0 size=N/A time=00:02:30.90 bitrate=N/A speed=15.4x    frame= 3813 fps=369 q=-0.0 size=N/A time=00:02:39.03 bitrate=N/A speed=15.4x    frame= 4016 fps=370 q=-0.0 size=N/A time=00:02:47.50 bitrate=N/A speed=15.4x    frame= 4191 fps=369 q=-0.0 size=N/A time=00:02:54.79 bitrate=N/A speed=15.4x    frame= 4394 fps=370 q=-0.0 size=N/A time=00:03:03.26 bitrate=N/A speed=15.4x    frame= 4594 fps=371 q=-0.0 size=N/A time=00:03:11.60 bitrate=N/A speed=15.5x    frame= 4793 fps=371 q=-0.0 size=N/A time=00:03:19.90 bitrate=N/A speed=15.5x    frame= 4984 fps=371 q=-0.0 size=N/A time=00:03:27.87 bitrate=N/A speed=15.5x    frame= 5135 fps=368 q=-0.0 size=N/A time=00:03:34.17 bitrate=N/A speed=15.4x    frame= 5300 fps=367 q=-0.0 size=N/A time=00:03:41.05 bitrate=N/A speed=15.3x    frame= 5508 fps=368 q=-0.0 size=N/A time=00:03:49.72 bitrate=N/A speed=15.3x    frame= 5708 fps=368 q=-0.0 size=N/A time=00:03:58.07 bitrate=N/A speed=15.4x    frame= 5912 fps=369 q=-0.0 size=N/A time=00:04:06.57 bitrate=N/A speed=15.4x    frame= 6120 fps=370 q=-0.0 size=N/A time=00:04:15.25 bitrate=N/A speed=15.4x    frame= 6329 fps=372 q=-0.0 size=N/A time=00:04:23.97 bitrate=N/A speed=15.5x    frame= 6532 fps=372 q=-0.0 size=N/A time=00:04:32.43 bitrate=N/A speed=15.5x    frame= 6740 fps=373 q=-0.0 size=N/A time=00:04:41.11 bitrate=N/A speed=15.6x    frame= 6945 fps=374 q=-0.0 size=N/A time=00:04:49.66 bitrate=N/A speed=15.6x    frame= 7138 fps=374 q=-0.0 size=N/A time=00:04:57.71 bitrate=N/A speed=15.6x    frame= 7339 fps=374 q=-0.0 size=N/A time=00:05:06.09 bitrate=N/A speed=15.6x    frame= 7546 fps=375 q=-0.0 size=N/A time=00:05:14.73 bitrate=N/A speed=15.6x    frame= 7752 fps=375 q=-0.0 size=N/A time=00:05:23.32 bitrate=N/A speed=15.7x    frame= 7959 fps=376 q=-0.0 size=N/A time=00:05:31.95 bitrate=N/A speed=15.7x    frame= 8159 fps=376 q=-0.0 size=N/A time=00:05:40.29 bitrate=N/A speed=15.7x    frame= 8370 fps=377 q=-0.0 size=N/A time=00:05:49.09 bitrate=N/A speed=15.7x    frame= 8577 fps=378 q=-0.0 size=N/A time=00:05:57.73 bitrate=N/A speed=15.8x    frame= 8779 fps=378 q=-0.0 size=N/A time=00:06:06.15 bitrate=N/A speed=15.8x    frame= 8957 fps=377 q=-0.0 size=N/A time=00:06:13.58 bitrate=N/A speed=15.7x    frame= 9162 fps=377 q=-0.0 size=N/A time=00:06:22.13 bitrate=N/A speed=15.7x    frame= 9340 fps=377 q=-0.0 size=N/A time=00:06:29.55 bitrate=N/A speed=15.7x    frame= 9538 fps=377 q=-0.0 size=N/A time=00:06:37.81 bitrate=N/A speed=15.7x    frame= 9740 fps=377 q=-0.0 size=N/A time=00:06:46.23 bitrate=N/A speed=15.7x    frame= 9943 fps=377 q=-0.0 size=N/A time=00:06:54.70 bitrate=N/A speed=15.7x    frame=10113 fps=376 q=-0.0 size=N/A time=00:07:01.79 bitrate=N/A speed=15.7x    frame=10302 fps=376 q=-0.0 size=N/A time=00:07:09.67 bitrate=N/A speed=15.7x    frame=10479 fps=376 q=-0.0 size=N/A time=00:07:17.06 bitrate=N/A speed=15.7x    frame=10657 fps=375 q=-0.0 size=N/A time=00:07:24.48 bitrate=N/A speed=15.6x    frame=10826 fps=374 q=-0.0 size=N/A time=00:07:31.53 bitrate=N/A speed=15.6x    frame=10987 fps=373 q=-0.0 size=N/A time=00:07:38.24 bitrate=N/A speed=15.6x    frame=11149 fps=372 q=-0.0 size=N/A time=00:07:45.00 bitrate=N/A speed=15.5x    frame=11340 fps=372 q=-0.0 size=N/A time=00:07:52.97 bitrate=N/A speed=15.5x    frame=11492 fps=371 q=-0.0 size=N/A time=00:07:59.31 bitrate=N/A speed=15.5x    frame=11663 fps=370 q=-0.0 size=N/A time=00:08:06.44 bitrate=N/A speed=15.4x    frame=11859 fps=370 q=-0.0 size=N/A time=00:08:14.61 bitrate=N/A speed=15.4x    frame=12037 fps=370 q=-0.0 size=N/A time=00:08:22.04 bitrate=N/A speed=15.4x    frame=12212 fps=370 q=-0.0 size=N/A time=00:08:29.34 bitrate=N/A speed=15.4x    frame=12393 fps=369 q=-0.0 size=N/A time=00:08:36.89 bitrate=N/A speed=15.4x    frame=12555 fps=368 q=-0.0 size=N/A time=00:08:43.64 bitrate=N/A speed=15.4x    frame=12720 fps=368 q=-0.0 size=N/A time=00:08:50.53 bitrate=N/A speed=15.3x    frame=12884 fps=367 q=-0.0 size=N/A time=00:08:57.37 bitrate=N/A speed=15.3x    frame=13074 fps=367 q=-0.0 size=N/A time=00:09:05.29 bitrate=N/A speed=15.3x    frame=13252 fps=367 q=-0.0 size=N/A time=00:09:12.71 bitrate=N/A speed=15.3x    frame=13426 fps=366 q=-0.0 size=N/A time=00:09:19.97 bitrate=N/A speed=15.3x    frame=13572 fps=365 q=-0.0 size=N/A time=00:09:26.06 bitrate=N/A speed=15.2x    frame=13735 fps=364 q=-0.0 size=N/A time=00:09:32.86 bitrate=N/A speed=15.2x    frame=13938 fps=365 q=-0.0 size=N/A time=00:09:41.33 bitrate=N/A speed=15.2x    frame=14126 fps=365 q=-0.0 size=N/A time=00:09:49.17 bitrate=N/A speed=15.2x    frame=14318 fps=365 q=-0.0 size=N/A time=00:09:57.17 bitrate=N/A speed=15.2x    frame=14507 fps=365 q=-0.0 size=N/A time=00:10:05.06 bitrate=N/A speed=15.2x    frame=14714 fps=365 q=-0.0 size=N/A time=00:10:13.69 bitrate=N/A speed=15.2x    frame=14908 fps=365 q=-0.0 size=N/A time=00:10:21.78 bitrate=N/A speed=15.2x    frame=15108 fps=366 q=-0.0 size=N/A time=00:10:30.12 bitrate=N/A speed=15.3x    frame=15309 fps=366 q=-0.0 size=N/A time=00:10:38.51 bitrate=N/A speed=15.3x    frame=15508 fps=366 q=-0.0 size=N/A time=00:10:46.81 bitrate=N/A speed=15.3x    frame=15695 fps=366 q=-0.0 size=N/A time=00:10:54.61 bitrate=N/A speed=15.3x    frame=15875 fps=366 q=-0.0 size=N/A time=00:11:02.11 bitrate=N/A speed=15.3x    frame=16076 fps=366 q=-0.0 size=N/A time=00:11:10.50 bitrate=N/A speed=15.3x    frame=16270 fps=367 q=-0.0 size=N/A time=00:11:18.59 bitrate=N/A speed=15.3x    frame=16433 fps=366 q=-0.0 size=N/A time=00:11:25.39 bitrate=N/A speed=15.3x    frame=16625 fps=366 q=-0.0 size=N/A time=00:11:33.40 bitrate=N/A speed=15.3x    frame=16784 fps=365 q=-0.0 size=N/A time=00:11:40.03 bitrate=N/A speed=15.2x    frame=16962 fps=365 q=-0.0 size=N/A time=00:11:47.45 bitrate=N/A speed=15.2x    frame=17137 fps=365 q=-0.0 size=N/A time=00:11:54.75 bitrate=N/A speed=15.2x    frame=17329 fps=365 q=-0.0 size=N/A time=00:12:02.76 bitrate=N/A speed=15.2x    frame=17515 fps=365 q=-0.0 size=N/A time=00:12:10.52 bitrate=N/A speed=15.2x    frame=17718 fps=365 q=-0.0 size=N/A time=00:12:18.98 bitrate=N/A speed=15.2x    frame=17909 fps=365 q=-0.0 size=N/A time=00:12:26.95 bitrate=N/A speed=15.2x    frame=18089 fps=365 q=-0.0 size=N/A time=00:12:34.46 bitrate=N/A speed=15.2x    frame=18276 fps=365 q=-0.0 size=N/A time=00:12:42.26 bitrate=N/A speed=15.2x    frame=18463 fps=365 q=-0.0 size=N/A time=00:12:50.06 bitrate=N/A speed=15.2x    frame=18657 fps=365 q=-0.0 size=N/A time=00:12:58.15 bitrate=N/A speed=15.2x    frame=18833 fps=365 q=-0.0 size=N/A time=00:13:05.49 bitrate=N/A speed=15.2x    frame=19035 fps=365 q=-0.0 size=N/A time=00:13:13.91 bitrate=N/A speed=15.2x    frame=19231 fps=365 q=-0.0 size=N/A time=00:13:22.09 bitrate=N/A speed=15.2x    frame=19431 fps=365 q=-0.0 size=N/A time=00:13:30.43 bitrate=N/A speed=15.2x    frame=19630 fps=366 q=-0.0 size=N/A time=00:13:38.73 bitrate=N/A speed=15.3x    frame=19823 fps=366 q=-0.0 size=N/A time=00:13:46.78 bitrate=N/A speed=15.3x    frame=20030 fps=366 q=-0.0 size=N/A time=00:13:55.41 bitrate=N/A speed=15.3x    frame=20227 fps=366 q=-0.0 size=N/A time=00:14:03.63 bitrate=N/A speed=15.3x    frame=20416 fps=366 q=-0.0 size=N/A time=00:14:11.51 bitrate=N/A speed=15.3x    frame=20620 fps=367 q=-0.0 size=N/A time=00:14:20.02 bitrate=N/A speed=15.3x    frame=20828 fps=367 q=-0.0 size=N/A time=00:14:28.70 bitrate=N/A speed=15.3x    frame=21012 fps=367 q=-0.0 size=N/A time=00:14:36.37 bitrate=N/A speed=15.3x    frame=21211 fps=367 q=-0.0 size=N/A time=00:14:44.67 bitrate=N/A speed=15.3x    frame=21397 fps=367 q=-0.0 size=N/A time=00:14:52.43 bitrate=N/A speed=15.3x    frame=21599 fps=367 q=-0.0 size=N/A time=00:15:00.85 bitrate=N/A speed=15.3x    frame=21796 fps=367 q=-0.0 size=N/A time=00:15:09.07 bitrate=N/A speed=15.3x    frame=21974 fps=367 q=-0.0 size=N/A time=00:15:16.49 bitrate=N/A speed=15.3x    frame=22157 fps=367 q=-0.0 size=N/A time=00:15:24.13 bitrate=N/A speed=15.3x    frame=22362 fps=367 q=-0.0 size=N/A time=00:15:32.68 bitrate=N/A speed=15.3x    frame=22564 fps=367 q=-0.0 size=N/A time=00:15:41.10 bitrate=N/A speed=15.3x    frame=22770 fps=368 q=-0.0 size=N/A time=00:15:49.69 bitrate=N/A speed=15.3x    frame=22961 fps=368 q=-0.0 size=N/A time=00:15:57.66 bitrate=N/A speed=15.3x    frame=23152 fps=368 q=-0.0 size=N/A time=00:16:05.63 bitrate=N/A speed=15.3x    frame=23342 fps=368 q=-0.0 size=N/A time=00:16:13.55 bitrate=N/A speed=15.3x    frame=23526 fps=368 q=-0.0 size=N/A time=00:16:21.23 bitrate=N/A speed=15.3x    frame=23728 fps=368 q=-0.0 size=N/A time=00:16:29.65 bitrate=N/A speed=15.3x    frame=23939 fps=368 q=-0.0 size=N/A time=00:16:38.45 bitrate=N/A speed=15.4x    frame=24147 fps=368 q=-0.0 size=N/A time=00:16:47.13 bitrate=N/A speed=15.4x    frame=24351 fps=369 q=-0.0 size=N/A time=00:16:55.63 bitrate=N/A speed=15.4x    frame=24545 fps=369 q=-0.0 size=N/A time=00:17:03.73 bitrate=N/A speed=15.4x    frame=24749 fps=369 q=-0.0 size=N/A time=00:17:12.23 bitrate=N/A speed=15.4x    frame=24939 fps=369 q=-0.0 size=N/A time=00:17:20.16 bitrate=N/A speed=15.4x    frame=25146 fps=369 q=-0.0 size=N/A time=00:17:28.79 bitrate=N/A speed=15.4x    frame=25345 fps=369 q=-0.0 size=N/A time=00:17:37.09 bitrate=N/A speed=15.4x    frame=25552 fps=369 q=-0.0 size=N/A time=00:17:45.73 bitrate=N/A speed=15.4x    frame=25747 fps=369 q=-0.0 size=N/A time=00:17:53.86 bitrate=N/A speed=15.4x    frame=25926 fps=369 q=-0.0 size=N/A time=00:18:01.33 bitrate=N/A speed=15.4x    frame=26117 fps=369 q=-0.0 size=N/A time=00:18:09.29 bitrate=N/A speed=15.4x    frame=26317 fps=370 q=-0.0 size=N/A time=00:18:17.63 bitrate=N/A speed=15.4x    frame=26514 fps=370 q=-0.0 size=N/A time=00:18:25.85 bitrate=N/A speed=15.4x    frame=26719 fps=370 q=-0.0 size=N/A time=00:18:34.40 bitrate=N/A speed=15.4x    frame=26909 fps=370 q=-0.0 size=N/A time=00:18:42.32 bitrate=N/A speed=15.4x    frame=27109 fps=370 q=-0.0 size=N/A time=00:18:50.67 bitrate=N/A speed=15.4x    frame=27314 fps=370 q=-0.0 size=N/A time=00:18:59.22 bitrate=N/A speed=15.4x    frame=27521 fps=370 q=-0.0 size=N/A time=00:19:07.85 bitrate=N/A speed=15.4x    frame=27724 fps=370 q=-0.0 size=N/A time=00:19:16.32 bitrate=N/A speed=15.5x    frame=27918 fps=370 q=-0.0 size=N/A time=00:19:24.41 bitrate=N/A speed=15.5x    frame=28116 fps=371 q=-0.0 size=N/A time=00:19:32.67 bitrate=N/A speed=15.5x    frame=28323 fps=371 q=-0.0 size=N/A time=00:19:41.30 bitrate=N/A speed=15.5x    frame=28512 fps=371 q=-0.0 size=N/A time=00:19:49.18 bitrate=N/A speed=15.5x    frame=28716 fps=371 q=-0.0 size=N/A time=00:19:57.69 bitrate=N/A speed=15.5x    frame=28912 fps=371 q=-0.0 size=N/A time=00:20:05.87 bitrate=N/A speed=15.5x    frame=29114 fps=371 q=-0.0 size=N/A time=00:20:14.29 bitrate=N/A speed=15.5x    frame=29319 fps=371 q=-0.0 size=N/A time=00:20:22.84 bitrate=N/A speed=15.5x    frame=29522 fps=371 q=-0.0 size=N/A time=00:20:31.31 bitrate=N/A speed=15.5x    frame=29731 fps=372 q=-0.0 size=N/A time=00:20:40.03 bitrate=N/A speed=15.5x    frame=29942 fps=372 q=-0.0 size=N/A time=00:20:48.83 bitrate=N/A speed=15.5x    frame=30137 fps=372 q=-0.0 size=N/A time=00:20:56.96 bitrate=N/A speed=15.5x    frame=30339 fps=372 q=-0.0 size=N/A time=00:21:05.38 bitrate=N/A speed=15.5x    frame=30543 fps=372 q=-0.0 size=N/A time=00:21:13.89 bitrate=N/A speed=15.5x    frame=30746 fps=372 q=-0.0 size=N/A time=00:21:22.36 bitrate=N/A speed=15.5x    frame=30954 fps=372 q=-0.0 size=N/A time=00:21:31.03 bitrate=N/A speed=15.5x    frame=31166 fps=373 q=-0.0 size=N/A time=00:21:39.88 bitrate=N/A speed=15.5x    frame=31366 fps=373 q=-0.0 size=N/A time=00:21:48.22 bitrate=N/A speed=15.6x    frame=31567 fps=373 q=-0.0 size=N/A time=00:21:56.60 bitrate=N/A speed=15.6x    frame=31779 fps=373 q=-0.0 size=N/A time=00:22:05.44 bitrate=N/A speed=15.6x    frame=31980 fps=373 q=-0.0 size=N/A time=00:22:13.83 bitrate=N/A speed=15.6x    frame=32190 fps=373 q=-0.0 size=N/A time=00:22:22.59 bitrate=N/A speed=15.6x    frame=32399 fps=374 q=-0.0 size=N/A time=00:22:31.30 bitrate=N/A speed=15.6x    frame=32609 fps=374 q=-0.0 size=N/A time=00:22:40.06 bitrate=N/A speed=15.6x    frame=32820 fps=374 q=-0.0 size=N/A time=00:22:48.86 bitrate=N/A speed=15.6x    frame=33029 fps=374 q=-0.0 size=N/A time=00:22:57.58 bitrate=N/A speed=15.6x    frame=33229 fps=374 q=-0.0 size=N/A time=00:23:05.92 bitrate=N/A speed=15.6x    frame=33438 fps=374 q=-0.0 size=N/A time=00:23:14.64 bitrate=N/A speed=15.6x    frame=33642 fps=375 q=-0.0 size=N/A time=00:23:23.15 bitrate=N/A speed=15.6x    frame=33847 fps=375 q=-0.0 size=N/A time=00:23:31.70 bitrate=N/A speed=15.6x    [Parsed_psnr_16 @ 00000196b478a400] PSNR y:48.261121 u:48.288760 v:48.132499 average:48.243989 min:39.247990 max:76.830322
[out#0/null @ 00000196b774c740] video:14630KiB audio:266272KiB subtitle:0KiB other streams:0KiB global headers:0KiB muxing overhead: unknown
frame=34047 fps=375 q=-0.0 Lsize=N/A time=00:23:40.04 bitrate=N/A speed=15.6x    
